<svg height="200px" width="200px" version="1.1" id="_x32_" xmlns="http://www.w3.org/2000/svg" xmlns:xlink="http://www.w3.org/1999/xlink" viewBox="0 0 512 512" xml:space="preserve" fill="#f2f5f5" stroke="#f2f5f5"><g id="SVGRepo_bgCarrier" stroke-width="0"></g><g id="SVGRepo_tracerCarrier" stroke-linecap="round" stroke-linejoin="round"></g><g id="SVGRepo_iconCarrier"> <style type="text/css"> .st0{fill:#f2f5f5;} </style> <g> <path class="st0" d="M355.233,243.171H156.758c-23.307,0-42.2,18.893-42.2,42.208v42.982c0,7.77,6.302,14.072,14.072,14.072h254.74 c7.769,0,14.072-6.302,14.072-14.072v-42.982C397.442,262.064,378.541,243.171,355.233,243.171z"></path> <path class="st0" d="M198.313,351.516h-50.678c0,0-4.224,29.57,14.781,84.465c19.005,54.902-2.812,44.343-9.848,42.933 c-13.26-2.645-23.236,23.228,2.104,31.674c25.347,8.447,48.567-21.809,42.941-69.683 C190.703,382.235,198.313,351.516,198.313,351.516z"></path> <path class="st0" d="M359.441,478.915c-7.036,1.41-28.854,11.968-9.85-42.933c19.005-54.895,14.782-84.465,14.782-84.465h-50.679 c0,0,7.61,30.718,0.709,89.389c-5.634,47.874,17.586,78.13,42.934,69.683C382.669,502.143,372.701,476.27,359.441,478.915z"></path> <path class="st0" d="M355.258,233.25C355.258,213.401,433.013,0,255.995,0c-177.008,0-99.253,213.401-99.253,233.25H355.258z"></path> </g> </g></svg>