<svg fill="#f2f5f5" height="200px" width="200px" version="1.1" id="Capa_1" xmlns="http://www.w3.org/2000/svg" xmlns:xlink="http://www.w3.org/1999/xlink" viewBox="0 0 446.086 446.086" xml:space="preserve" stroke="#f2f5f5"><g id="SVGRepo_bgCarrier" stroke-width="0"></g><g id="SVGRepo_tracerCarrier" stroke-linecap="round" stroke-linejoin="round"></g><g id="SVGRepo_iconCarrier"> <g> <path d="M304.543,46.295V110c0,1.712-0.174,3.384-0.503,5h69.503c2.71,0,5-2.29,5-5V5c0-2.711-2.29-5-5-5h-88c-2.71,0-5,2.289-5,5 v16.32C293.865,21.848,304.543,32.845,304.543,46.295z"></path> <path d="M227.638,115h51.905c2.71,0,5-2.29,5-5V46.295c0-2.71-2.29-5-5-5h-51.905c-2.71,0-5,2.29-5,5V110 C222.638,112.71,224.928,115,227.638,115z"></path> <path d="M419.043,135.899h-392c-9.925,0-18,8.075-18,18v139h428v-139C437.043,143.974,428.968,135.899,419.043,135.899z M237.043,230.899h-28c-5.523,0-10-4.477-10-10c0-5.523,4.477-10,10-10h28c5.522,0,10,4.477,10,10 C247.043,226.422,242.565,230.899,237.043,230.899z"></path> <path d="M233.043,415.899h165.546l8.335,23.523c1.453,4.102,5.309,6.663,9.426,6.663c1.108,0,2.235-0.186,3.34-0.577 c5.206-1.845,7.931-7.56,6.086-12.766l-5.982-16.882c9.576-0.397,17.25-8.29,17.25-17.962v-85h-204V415.899z M328.043,351.899h28 c5.522,0,10,4.477,10,10c0,5.523-4.478,10-10,10h-28c-5.522,0-10-4.477-10-10C318.043,356.376,322.52,351.899,328.043,351.899z"></path> <path d="M9.043,397.899c0,9.707,7.728,17.623,17.352,17.967l-5.98,16.876c-1.845,5.206,0.88,10.921,6.086,12.766 c1.105,0.391,2.231,0.577,3.34,0.577c4.116,0,7.973-2.561,9.426-6.663l8.335-23.523h165.44v-103h-204V397.899z M95.043,351.899h28 c5.523,0,10,4.477,10,10c0,5.523-4.477,10-10,10h-28c-5.523,0-10-4.477-10-10C85.043,356.376,89.52,351.899,95.043,351.899z"></path> <path d="M51.115,115h67.429c2.71,0,5-2.29,5-5l0.001-38.908c0-2.711-2.29-5-5-5H51.115c-2.71,0-5,2.289-5,5V110 C46.115,112.71,48.404,115,51.115,115z"></path> </g> </g></svg>