<svg fill="#f2f5f5" version="1.1" xmlns="http://www.w3.org/2000/svg" xmlns:xlink="http://www.w3.org/1999/xlink" viewBox="0 0 22 32" xml:space="preserve" stroke="#f2f5f5"><g id="SVGRepo_bgCarrier" stroke-width="0"></g><g id="SVGRepo_tracerCarrier" stroke-linecap="round" stroke-linejoin="round"></g><g id="SVGRepo_iconCarrier"> <g id="mirror-3"> <path d="M11,2.863c-4.26,0-7.825,4.467-8.679,10.401L12.517,3.069C12.022,2.943,11.518,2.863,11,2.863z"></path> <path d="M14.489,3.925L2.135,16.279c0.014,1.001,0.107,1.972,0.266,2.906L16.204,5.382C15.672,4.81,15.101,4.313,14.489,3.925z"></path> <path d="M11,0C4.926,0,0,7.163,0,16s4.926,16,11,16s11-7.163,11-16S17.074,0,11,0z M11,30.137c-5.445,0-9.875-6.342-9.875-14.137 S5.555,1.863,11,1.863S20.875,8.205,20.875,16S16.445,30.137,11,30.137z"></path> <path d="M17.435,6.979L2.942,21.472c1.405,4.516,4.484,7.665,8.058,7.665c4.894,0,8.875-5.894,8.875-13.137 C19.875,12.507,18.942,9.335,17.435,6.979z"></path> </g> <g id="Layer_1"> </g> </g></svg>